# AST/ASF file generated using VICON BodyLanguage
# -----------------------------------------------
:version 1.10
:name VICON
:units
  mass 1.0
  length 0.45
  angle deg
:documentation
   .ast/.asf automatically generated from VICON data using
   VICON BodyBuilder and BodyLanguage model FoxedUp or BRILLIANT.MOD
:root
   order TX TY TZ RX RY RZ
   axis XYZ
   position 0 0 0  
   orientation 0 0 0 
:bonedata
  begin
     id 1 
     name lhipjoint
     direction 0.630082 -0.636569 0.44472 
     length 2.82754 
     axis 0 0 0  XYZ
  end
  begin
     id 2 
     name lfemur
     direction 0.34202 -0.939693 0  
     length 7.26371  
     axis 0 0 20  XYZ
    dof rx ry rz
    limits (-160.0 20.0)
           (-70.0 70.0)
           (-60.0 70.0)
  end
  begin
     id 3 
     name ltibia
     direction 0.34202 -0.939693 0   
     length 7.88616   
     axis 0 0 20   XYZ
    dof rx
    limits (-10.0 170.0)
  end
  begin
     id 4 
     name lfoot
     direction 0.0603448 -0.165796 0.984312   
     length 1.77861   
     axis -90 7.62852e-016 20   XYZ
    dof rx rz
    limits (-45.0 90.0)
           (-70.0 20.0)
  end
  begin
     id 5 
     name ltoes
     direction 1.53577e-011 -4.21876e-011 1   
     length 0.902235   
     axis -90 7.62852e-016 20   XYZ
    dof rx
    limits (-90.0 20.0)
  end
  begin
     id 6 
     name rhipjoint
     direction -0.656778 -0.61817 0.431866   
     length 2.9117  
     axis 0 0 0  XYZ 
  end
  begin
     id 7 
     name rfemur
     direction -0.34202 -0.939693 0   
     length 6.81603   
     axis 0 0 -20   XYZ
    dof rx ry rz
    limits (-160.0 20.0)
           (-70.0 70.0)
           (-70.0 60.0)
  end
  begin
     id 8 
     name rtibia
     direction -0.34202 -0.939693 0   
     length 8.05997   
     axis 0 0 -20   XYZ
    dof rx
    limits (-10.0 170.0)
 end
 begin
     id 9 
     name rfoot
     direction -0.0862404 -0.236944 0.967688   
     length 1.84899  
     axis -90 -7.62852e-016 -20   XYZ
    dof rx rz
    limits (-45.0 90.0)
           (-20.0 70.0)
  end
  begin
     id 10 
     name rtoes
     direction -1.53561e-011 -4.21798e-011 1   
     length 0.931579   
     axis -90 -7.62852e-016 -20   XYZ
    dof rx
    limits (-90.0 20.0)
  end
  begin
     id 11 
     name lowerback
     direction -0.0110203 0.991769 -0.127564   
     length 2.05686   
     axis 0 0 0   XYZ
    dof rx ry rz
    limits (-20.0 45.0)
           (-30.0 30.0)
           (-30.0 30.0)
  end
  begin
     id 12 
     name upperback
     direction 0.0109719 0.99993 -0.00432479   
     length 2.06234   
     axis 0 0 0   XYZ
    dof rx ry rz
    limits (-20.0 45.0)
           (-30.0 30.0)
           (-30.0 30.0)
  end
  begin
     id 13 
     name thorax
     direction 0.0173308 0.998351 0.0547306   
     length 2.09856   
     axis 0 0 0   XYZ
    dof rx ry rz
    limits (-20.0 45.0)
           (-30.0 30.0)
           (-30.0 30.0)
  end
  begin
     id 14 
     name lowerneck
     direction -0.0311736 0.989033 0.144366   
     length 1.98151   
     axis 0 0 0   XYZ
    dof rx ry rz
    limits (-20.0 45.0)
           (-30.0 30.0)
           (-30.0 30.0)
  end
  begin
     id 15 
     name upperneck
     direction 0.0421057 0.975772 -0.214698   
     length 2.01457   
     axis 0 0 0   XYZ
    dof rx ry rz
    limits (-20.0 45.0)
           (-30.0 30.0)
           (-30.0 30.0)
  end
  begin
     id 16
     name head
     direction 0.0136911 0.995958 -0.0887718  
     length 2.03562  
     axis 0 0 0   XYZ
    dof rx ry rz
    limits (-20.0 45.0)
           (-30.0 30.0)
           (-30.0 30.0)
  end
  begin
     id 17 
     name lclavicle
     direction 0.915335 0.396201 0.0720134  
     length 4.16217  
     axis 0 0 0   XYZ
    dof ry rz
    limits (-20.0 10.0)
           (0.0 20.0)
  end
  begin
     id 18 
     name lhumerus
     direction 1 -4.48965e-011 6.383e-018   
     length 4.93042   
     axis -180 -30 -90   XYZ
    dof rx ry rz
    limits (-60.0 90.0)
           (-90.0 90.0)
           (-90.0 90.0)
  end
  begin
     id 19
     name lradius
     direction 1 -4.48972e-011 8.8689e-027   
     length 3.68177   
     axis -180 -30 -90   XYZ
    dof rx
    limits (-10.0 170.0)
  end
  begin
     id 20
     name lwrist
     direction 1 -4.48953e-011 1.17971e-026   
     length 1.84089   
     axis -7.69454e-015 90 90   XYZ
    dof ry
    limits (-180.0 0.0)
 end
  begin
     id 21 
     name lhand
     direction 1 -4.49027e-011 2.35802e-026   
     length 0.721479   
     axis -1.50533e-014 90 90   XYZ
    dof rx rz
    limits (-90.0 90.0)
           (-45.0 45.0)
  end
  begin
     id 22 
     name lfingers
     direction 1 -4.48915e-011 4.72027e-026   
     length 0.581675   
     axis -3.01059e-014 90 90   XYZ
    dof rx
    limits (0.0 90.0)
  end
  begin
     id 23
     name lthumb
     direction 0.707107 -6.34948e-011 0.707107   
     length 0.835172   
     axis -90 45 -5.12164e-014   XYZ
    dof rx rz
    limits (-45.0 45.0)
           (-45.0 45.0)
  end
  begin
     id 24 
     name rclavicle
     direction -0.882781 0.469197 0.0234974   
     length 3.95647  
     axis 0 0 0   XYZ 
    dof ry rz
    limits (-10.0 20.0)
           (-20.0 0.0)
  end
  begin
     id 25 
     name rhumerus
     direction -1 -4.48965e-011 -1.54906e-018  
     length 5.07905   
     axis -180 30 90   XYZ
    dof rx ry rz
    limits (-90.0 60.0)
           (-90.0 90.0)
           (-90.0 90.0)
  end
  begin
     id 26 
     name rradius
     direction -1 -4.48972e-011 5.47489e-027   
     length 3.54394   
     axis -180 30 90   XYZ
    dof rx
    limits (-10.0 170.0)
  end
  begin
     id 27 
     name rwrist
     direction -1 -4.48955e-011 1.17969e-026   
     length 1.77197   
     axis -7.69454e-015 -90 -90   XYZ
    dof ry
    limits (-180.0 0.0)
  end
  begin
     id 28
     name rhand
     direction -1 -4.48982e-011 2.35888e-026   
     length 0.681156   
     axis -1.50533e-014 -90 -90   XYZ
    dof rx rz
    limits (-90.0 90.0)
           (-45.0 45.0)
  end
  begin
     id 29
     name rfingers
     direction -1 -4.48955e-011 4.71877e-026   
     length 0.549165   
     axis -3.01059e-014 -90 -90   XYZ
    dof rx
    limits (0.0 90.0)
  end
  begin
     id 30
     name rthumb
     direction -0.707107 -6.3491e-011 0.707107   
     length 0.788495   
     axis -90 -45 5.12164e-014   XYZ
    dof rx rz
    limits (-45.0 45.0)
           (-45.0 45.0)
  end
:hierarchy
  begin
    root lhipjoint rhipjoint lowerback
    lhipjoint lfemur
    lfemur ltibia
    ltibia lfoot
    lfoot ltoes
    rhipjoint rfemur
    rfemur rtibia
    rtibia rfoot
    rfoot rtoes
    lowerback upperback
    upperback thorax
    thorax lowerneck lclavicle rclavicle
    lowerneck upperneck
    upperneck head
    lclavicle lhumerus
    lhumerus lradius
    lradius lwrist
    lwrist lhand lthumb
    lhand lfingers
    rclavicle rhumerus
    rhumerus rradius
    rradius rwrist
    rwrist rhand rthumb
    rhand rfingers
  end

#!OML:ASF H:\Bending\Project 1\Capture day 1\Session 1\Subject.ASF
:FULLY-SPECIFIED
:DEGREES
98
root -11.9735 10.6938 -15.9867 178.35 83.182 181.193
lowerback 56.2223 -4.40605 3.92099
upperback 5.80989 -0.722524 1.1323
thorax -14.905 0.298537 -0.317803
lowerneck -22.5936 -4.38553 -7.5703
upperneck 12.1872 -4.54422 5.40245
head 7.72372 -1.99113 2.42877
rclavicle 1.39149e-014 -3.81667e-014
rhumerus 15.2928 -21.887 -106.643
rradius 21.1566
rwrist 34.1707
rhand -38.3472 -34.4816
rfingers 7.12502
rthumb -11.3742 -64.1531
lclavicle 1.39149e-014 -3.81667e-014
lhumerus 22.905 0.97644 106.378
lradius 13.1407
lwrist 6.437
lhand -42.6551 17.7284
lfingers 7.12502
lthumb -15.5262 47.125
rfemur -59.2878 -61.5207 -0.926069
rtibia 125.749
rfoot -35.1305 23.8412
rtoes 6.6551
lfemur -69.6101 35.8858 -6.65947
ltibia 120.76
lfoot -18.664 -36.7674
ltoes 6.37243
99
root -11.9705 10.6798 -15.988 178.079 83.0839 180.99
lowerback 56.177 -4.5043 3.91796
upperback 5.83866 -0.844127 1.10889
thorax -14.8682 0.251262 -0.28401
lowerneck -22.5333 -4.38282 -7.55379
upperneck 12.1075 -4.56564 5.50167
head 7.69108 -1.99116 2.45714
rclavicle 1.23246e-014 -7.95139e-016
rhumerus 15.366 -22.7142 -106.989
rradius 21.102
rwrist 34.8952
rhand -37.8468 -33.3174
rfingers 7.12502
rthumb -10.8915 -63.015
lclavicle 1.23246e-014 -7.95139e-016
lhumerus 22.4855 0.776041 106.036
lradius 13.7355
lwrist 6.4562
lhand -43.0478 17.5847
lfingers 7.12502
lthumb -15.9044 46.9516
rfemur -58.9528 -61.7234 -1.34166
rtibia 125.865
rfoot -35.1429 23.9931
rtoes 7.0646
lfemur -69.5742 36.034 -6.63356
ltibia 120.815
lfoot -18.24 -37.1967
ltoes 7.13839
100
root -11.9718 10.6818 -15.9897 177.569 83.0265 180.469
lowerback 56.0415 -4.5045 3.83801
upperback 5.87347 -0.901872 1.11893
thorax -14.8171 0.229901 -0.210546
lowerneck -22.4662 -4.40972 -7.57861
upperneck 12.0535 -4.61665 5.6057
head 7.66913 -2.00713 2.48977
rclavicle 4.45278e-014 9.14409e-015
rhumerus 15.4719 -23.3197 -107.076
rradius 20.8767
rwrist 34.7493
rhand -37.5191 -31.8108
rfingers 7.12502
rthumb -10.5754 -61.5247
lclavicle 4.45278e-014 9.14409e-015
lhumerus 22.1405 0.371015 105.596
lradius 14.2671
lwrist 6.77017
lhand -42.8821 17.768
lfingers 7.12502
lthumb -15.7448 47.1476
rfemur -58.9381 -61.7489 -1.41155
rtibia 125.862
rfoot -35.1011 23.9243
rtoes 7.08016
lfemur -69.5355 36.0424 -6.74348
ltibia 120.737
lfoot -17.9738 -37.449
ltoes 7.88757
101
root -11.9775 10.7007 -15.9923 176.971 82.994 179.783
lowerback 55.8359 -4.43442 3.71105
upperback 5.91281 -0.907674 1.15937
thorax -14.7541 0.229135 -0.10798
lowerneck -22.4261 -4.44766 -7.61536
upperneck 12.0177 -4.6739 5.69059
head 7.65787 -2.02822 2.51678
rclavicle 2.74323e-014 4.69132e-014
rhumerus 15.6315 -23.5677 -106.908
rradius 20.4739
rwrist 33.8019
rhand -37.5323 -30.1528
rfingers 7.12502
rthumb -10.5881 -59.8661
lclavicle 2.74323e-014 4.69132e-014
lhumerus 21.9355 -0.0552876 105.159
lradius 14.645
lwrist 7.22131
lhand -42.2539 18.1473
lfingers 7.12502
lthumb -15.1398 47.5735
rfemur -59.2135 -61.5628 -1.16184
rtibia 125.732
rfoot -35.0026 23.644
rtoes 6.532
lfemur -69.5052 35.8671 -6.97134
ltibia 120.529
lfoot -17.8996 -37.4848
ltoes 8.62804
102
root -11.9874 10.7371 -15.996 176.501 82.9686 179.159
lowerback 55.5971 -4.3358 3.58219
upperback 5.94856 -0.881656 1.21793
thorax -14.6917 0.23988 0.000181666
lowerneck -22.4408 -4.47953 -7.63052
upperneck 11.9838 -4.71937 5.74352
head 7.65395 -2.0449 2.53068
rclavicle 9.14409e-015 1.19271e-014
rhumerus 15.883 -23.477 -106.564
rradius 19.9175
rwrist 32.4378
rhand -37.7734 -28.5398
rfingers 7.12502
rthumb -10.8207 -58.241
lclavicle 9.14409e-015 1.19271e-014
lhumerus 21.8828 -0.347236 104.819
lradius 14.8544
lwrist 7.64996
lhand -41.3536 18.5211
lfingers 7.12502
lthumb -14.2724 48.0106
rfemur -59.701 -61.1166 -0.628196
rtibia 125.458
rfoot -34.8168 23.2185
rtoes 5.64667
lfemur -69.4863 35.4892 -7.27747
ltibia 120.191
lfoot -17.9936 -37.3054
ltoes 9.33776
103
root -12.0011 10.7907 -16.0006 176.354 82.9375 178.8
lowerback 55.3353 -4.23521 3.47979
upperback 5.99248 -0.835255 1.29242
thorax -14.6162 0.257957 0.104268
lowerneck -22.5175 -4.49971 -7.61264
upperneck 11.9175 -4.74724 5.7667
head 7.64641 -2.05333 2.53103
rclavicle 2.3059e-014 -1.03368e-014
rhumerus 16.2726 -23.1822 -106.156
rradius 19.2724
rwrist 31.1725
rhand -37.9438 -27.1779
rfingers 7.12502
rthumb -10.9851 -56.8705
lclavicle 2.3059e-014 -1.03368e-014
lhumerus 21.9662 -0.395576 104.665
lradius 14.9382
lwrist 7.91557
lhand -40.3922 18.7208
lfingers 7.12502
lthumb -13.3458 48.2734
rfemur -60.3032 -60.3851 0.142881
rtibia 125.026
rfoot -34.5088 22.7344
rtoes 4.85117
lfemur -69.4782 34.9274 -7.61763
ltibia 119.721
lfoot -18.195 -36.947
ltoes 9.93851
104
root -12.0181 10.8597 -16.0061 176.609 82.8963 178.798
lowerback 55.0776 -4.15033 3.42495
upperback 6.03695 -0.776711 1.37306
thorax -14.5391 0.27961 0.188098
lowerneck -22.652 -4.51635 -7.5741
upperneck 11.8134 -4.7697 5.7868
head 7.63459 -2.05728 2.52722
rclavicle -2.8625e-014 7.95139e-016
rhumerus 16.7777 -22.8679 -105.776
rradius 18.655
rwrist 30.4247
rhand -37.7477 -26.2408
rfingers 7.12502
rthumb -10.7959 -55.9433
lclavicle -2.8625e-014 7.95139e-016
lhumerus 22.1182 -0.177108 104.732
lradius 14.9643
lwrist 7.9402
lhand -39.5429 18.6869
lfingers 7.12502
lthumb -12.5271 48.2914
rfemur -60.9334 -59.3974 1.0915
rtibia 124.436
rfoot -34.0715 22.2505
rtoes 4.45337
lfemur -69.4805 34.2331 -7.96072
ltibia 119.13
lfoot -18.4381 -36.4652
ltoes 10.3098
105
root -12.0379 10.9408 -16.012 177.206 82.8475 179.101
lowerback 54.8324 -4.07725 3.41327
upperback 6.07925 -0.70444 1.45727
thorax -14.4646 0.305735 0.249987
lowerneck -22.8263 -4.54869 -7.55287
upperneck 11.6827 -4.8097 5.84162
head 7.62287 -2.06605 2.53511
rclavicle 8.74653e-015 -2.70347e-014
rhumerus 17.3119 -22.6346 -105.453
rradius 18.2203
rwrist 30.3246
rhand -37.0506 -25.7775
rfingers 7.12502
rthumb -10.1235 -55.514
lclavicle 8.74653e-015 -2.70347e-014
lhumerus 22.2662 0.224601 104.992
lradius 14.9923
lwrist 7.73352
lhand -38.9178 18.4867
lfingers 7.12502
lthumb -11.9243 48.1271
rfemur -61.5366 -58.2375 2.14931
rtibia 123.704
rfoot -33.5419 21.7621
rtoes 4.38626
lfemur -69.4912 33.4718 -8.29674
ltibia 118.434
lfoot -18.6813 -35.9162
ltoes 10.3362
106
root -12.06 11.0307 -16.0183 177.987 82.7962 179.558
lowerback 54.5962 -4.0023 3.4261
upperback 6.11616 -0.614785 1.54395
thorax -14.3967 0.338166 0.295282
lowerneck -23.0164 -4.61702 -7.59232
upperneck 11.552 -4.89012 5.96463
head 7.62004 -2.08972 2.57
rclavicle -2.10712e-014 -1.43125e-014
rhumerus 17.7296 -22.4101 -105.122
rradius 18.1327
rwrist 30.639
rhand -35.9374 -25.6751
rfingers 7.12502
rthumb -9.04937 -55.461
lclavicle -2.10712e-014 -1.43125e-014
lhumerus 22.3476 0.631201 105.337
lradius 15.0552
lwrist 7.39503
lhand -38.569 18.2772
lfingers 7.12502
lthumb -11.588 47.9368
rfemur -62.0902 -57.0145 3.24757
rtibia 122.851
rfoot -32.9913 21.2052
rtoes 4.19169
lfemur -69.5023 32.6972 -8.63485
ltibia 117.651
lfoot -18.9276 -35.3399
ltoes 9.95245
